:SAMPLES-PER-SECOND 30
:FULLY-SPECIFIED
:DEGREES
160
root  -56.9562 39.2454 -27.314 172.345 2.55918 179.999
RightUpLeg  4.88796 -9.65094 0.136028
RightLeg  35.1246 -1.2368 -1.15253
RightFoot  -17.6732 -0.0574366 1.50278
RightToes  1.16414e-010 0 -3.6325e-017
Spine  6.30418 1.49923 1.47432
Spine1  7.23932 1.71515 0.214375
HEad  -15.7724 -1.60842 0.030553
LeftShoulder1  6.42042 -9.11964 -44.259
LeftArm  -4.76529 33.722 -25.7959
LeftForeArm  45.458 -66.5906 -21.5699
LeftHand  -0.244104 0.0205437 5.32207
RightShoulder  6.3989 9.94746 41.35
RightArm  9.41687 -13.3282 33.626
RightForeArm  76.7517 79.1907 60.2868
RightHand  -0.0312755 -7.65785 -0.510111
LeftUpLeg  -16.5701 9.75643 -2.90486
LeftLeg  13.1619 7.29505 0.469105
LeftFoot  8.70334 -1.34156 7.31385
LeftToes  9.04034e-010 7.59002e-011 -1.12606e-011
161
root  -56.9854 39.1214 -28.1619 172.006 2.80072 178.233
RightUpLeg  0.0162221 -8.90446 -3.07764
RightLeg  46.033 0.996678 0.834464
RightFoot  -10.71 -0.132889 7.20684
RightToes  1.16414e-010 0 -3.6325e-017
Spine  7.87402 1.58067 -1.64011
Spine1  6.3602 1.51533 0.706394
HEad  -16.9457 -1.09692 0.458687
LeftShoulder1  6.68352 -9.39398 -45.1329
LeftArm  -5.99701 28.5488 -26.447
LeftForeArm  39.147 -55.2342 -12.9101
LeftHand  -0.244104 0.0205437 5.32207
RightShoulder  6.6118 10.1227 42.2403
RightArm  6.58996 -14.1262 34.0959
RightForeArm  54.9312 73.4581 32.5047
RightHand  -0.0322744 -7.50796 -0.40615
LeftUpLeg  -17.0338 12.4927 -5.59957
LeftLeg  16.6537 4.47223 1.46863
LeftFoot  6.76488 -1.30869 7.93171
LeftToes  9.04034e-010 7.59002e-011 -1.12606e-011
162
root  -57.065 39.1402 -28.8596 171.865 3.20476 176.812
RightUpLeg  -6.20507 -8.46052 -6.24579
RightLeg  55.9327 2.74771 3.91651
RightFoot  -0.0541306 -1.05192 10.7718
RightToes  1.16414e-010 0 -3.6325e-017
Spine  9.69339 1.51852 -2.98694
Spine1  5.06314 1.47178 -0.27016
HEad  -16.9739 -0.613934 0.362814
LeftShoulder1  7.01585 -9.90465 -45.5996
LeftArm  -6.77676 23.4139 -27.067
LeftForeArm  34.798 -41.9 -7.6936
LeftHand  -0.244104 0.0205437 5.32207
RightShoulder  6.63953 10.1942 42.1915
RightArm  3.43729 -15.9216 34.9373
RightForeArm  45.2719 66.8375 21.5889
RightHand  -0.0141639 -7.59296 -1.30193
LeftUpLeg  -16.3689 13.8883 -7.00432
LeftLeg  17.9643 3.65036 1.27283
LeftFoot  4.18869 -1.08289 7.74052
LeftToes  9.04034e-010 7.59002e-011 -1.12606e-011
163
root  -57.1564 39.2776 -29.4844 171.759 3.86408 176.428
RightUpLeg  -11.7328 -8.10814 -8.03327
RightLeg  62.4806 2.93071 5.50291
RightFoot  6.34353 -1.83698 12.1157
RightToes  1.16414e-010 0 -3.6325e-017
Spine  11.6469 1.25343 -2.70673
Spine1  3.38947 1.31782 -1.60415
HEad  -16.5049 0.349714 -0.562265
LeftShoulder1  7.10201 -10.1012 -45.4888
LeftArm  -7.42189 19.8058 -27.7267
LeftForeArm  30.3932 -30.4983 -4.91295
LeftHand  -0.244104 0.0205437 5.32207
RightShoulder  6.48151 10.0695 41.5195
RightArm  2.52886 -17.8781 34.8427
RightForeArm  33.4214 61.3698 17.5416
RightHand  0.00465395 -6.43491 -5.4171
LeftUpLeg  -14.7837 14.2008 -6.53144
LeftLeg  17.6958 4.66435 0.385863
LeftFoot  3.01537 -0.963553 7.49582
LeftToes  9.04034e-010 7.59002e-011 -1.12606e-011
164
root  -57.2383 39.6409 -30.1093 171.945 4.49333 176.985
RightUpLeg  -15.8207 -7.67099 -8.37554
RightLeg  64.8784 2.09462 4.27959
RightFoot  6.12069 -1.82901 12.1386
RightToes  1.16414e-010 0 -3.6325e-017
Spine  13.1016 0.67042 -1.91906
Spine1  1.74284 0.773048 -1.85207
HEad  -16.4615 1.96129 -1.81789
LeftShoulder1  6.95609 -9.91554 -45.1569
LeftArm  -8.91292 18.6274 -27.8811
LeftForeArm  27.2533 -24.1743 -3.73883
LeftHand  -0.244104 0.0205437 5.32207
RightShoulder  6.28125 9.85281 40.8406
RightArm  4.02523 -18.8084 33.6924
RightForeArm  20.837 56.315 15.1909
RightHand  -0.180538 -3.52075 -10.6725
LeftUpLeg  -12.3192 11.6416 -4.56124
LeftLeg  15.3288 8.13815 -0.895925
LeftFoot  3.15423 -0.924181 7.10721
LeftToes  9.04034e-010 7.59002e-011 -1.12606e-011
165
root  -57.3061 40.0686 -30.7269 172.606 5.10553 177.925
RightUpLeg  -18.9892 -6.84237 -7.96674
RightLeg  63.5756 0.89677 1.41862
RightFoot  3.13754 -1.38741 11.0423
RightToes  1.16414e-010 0 -3.6325e-017
Spine  13.5809 0.00718873 -1.16911
Spine1  0.789382 0.0788656 -1.35594
HEad  -17.0452 3.61434 -2.82248
LeftShoulder1  6.75597 -9.62352 -44.8179
LeftArm  -11.313 19.3504 -27.1293
LeftForeArm  26.4287 -22.6668 -3.53307
LeftHand  -0.244104 0.0205437 5.32207
RightShoulder  6.09931 9.66419 40.172
RightArm  5.14724 -18.9043 32.5269
RightForeArm  14.7212 51.1867 12.8506
RightHand  -0.471996 -1.17457 -13.0871
LeftUpLeg  -10.1289 7.94778 -2.57828
LeftLeg  12.2103 12.155 -2.0297
LeftFoot  3.14835 -0.834224 6.40277
LeftToes  9.04034e-010 7.59002e-011 -1.12606e-011
166
root  -57.3423 40.3969 -31.3216 173.557 5.82271 178.879
RightUpLeg  -21.3405 -5.65823 -7.32014
RightLeg  59.2868 -0.704577 -1.74244
RightFoot  1.00005 -0.91734 8.53151
RightToes  1.16414e-010 0 -3.6325e-017
Spine  13.3025 -0.405324 -0.447513
Spine1  0.510348 -0.344589 -0.910819
HEad  -17.7537 4.8395 -3.24774
LeftShoulder1  6.49106 -9.27195 -44.2149
LeftArm  -12.9751 20.5634 -25.6609
LeftForeArm  26.3493 -23.3012 -3.624
LeftHand  -0.244104 0.0205437 5.32207
RightShoulder  5.85493 9.41714 39.215
RightArm  4.43316 -19.229 31.6879
RightForeArm  14.3164 46.5815 10.8202
RightHand  -0.598669 0.0103311 -12.9252
LeftUpLeg  -8.64459 5.50991 -1.05328
LeftLeg  9.58476 15.0013 -2.88584
LeftFoot  2.91673 -0.747219 5.82849
LeftToes  9.04034e-010 7.59002e-011 -1.12606e-011
167
root  -57.3146 40.6022 -31.8799 174.346 6.40887 179.65
RightUpLeg  -22.1801 -4.53318 -6.74051
RightLeg  52.6709 -3.08016 -4.67813
RightFoot  -0.752465 -0.528769 5.63715
RightToes  1.16414e-010 0 -3.6325e-017
Spine  13.1853 -0.463453 -0.160002
Spine1  0.187414 -0.468888 -0.361259
HEad  -18.312 5.5727 -3.17848
LeftShoulder1  6.00334 -8.6621 -42.8601
LeftArm  -13.5035 21.2357 -23.9228
LeftForeArm  26.2048 -23.652 -3.68703
LeftHand  -0.244104 0.0205437 5.32207
RightShoulder  5.50783 8.98956 38.0401
RightArm  3.18066 -20.0091 30.4965
RightForeArm  13.5745 42.7933 9.46061
RightHand  -0.749546 1.43319 -12.8582
LeftUpLeg  -7.62599 4.87841 0.032585
LeftLeg  7.97913 16.0436 -3.43302
LeftFoot  2.83855 -0.728349 5.71321
LeftToes  9.04034e-010 7.59002e-011 -1.12606e-011
